<svg xmlns="http://www.w3.org/2000/svg" xmlns:xlink="http://www.w3.org/1999/xlink" width="1080" zoomAndPan="magnify" viewBox="0 0 810 809.999993" height="1080" preserveAspectRatio="xMidYMid meet" version="1.0"><defs><clipPath id="568988694f"><path d="M 468 23.976562 L 701.746094 23.976562 L 701.746094 785.976562 L 468 785.976562 Z M 468 23.976562 " clip-rule="nonzero"/></clipPath><clipPath id="9ecf03bafd"><path d="M 108.496094 23.976562 L 342 23.976562 L 342 785.976562 L 108.496094 785.976562 Z M 108.496094 23.976562 " clip-rule="nonzero"/></clipPath></defs><g clip-path="url(#568988694f)"><path fill="#ffffff" d="M 489.667969 108.648438 L 468.5 108.648438 L 468.5 23.976562 L 489.667969 23.976562 C 559.8125 23.976562 616.671875 80.839844 616.671875 150.984375 L 616.671875 299.15625 C 616.671875 312.484375 622.949219 325.027344 633.609375 333.023438 L 684.410156 371.128906 C 694.574219 378.75 700.78125 390.542969 701.304688 403.238281 C 701.835938 415.933594 696.632812 428.199219 687.132812 436.640625 L 630.886719 486.621094 C 621.847656 494.65625 616.671875 506.175781 616.671875 518.269531 L 616.671875 659.007812 C 616.671875 729.152344 559.8125 786.011719 489.667969 786.011719 L 468.5 786.011719 L 468.5 701.34375 L 489.667969 701.34375 C 513.050781 701.34375 532.003906 682.390625 532.003906 659.007812 L 532.003906 518.269531 C 532.003906 481.984375 547.519531 447.4375 574.644531 423.335938 L 592.152344 407.773438 L 582.804688 400.761719 C 550.824219 376.773438 532.003906 339.132812 532.003906 299.15625 L 532.003906 150.984375 C 532.003906 127.601562 513.050781 108.648438 489.667969 108.648438 Z M 489.667969 108.648438 " fill-opacity="1" fill-rule="evenodd"/></g><g clip-path="url(#9ecf03bafd)"><path fill="#ffffff" d="M 320.328125 108.648438 L 341.496094 108.648438 L 341.496094 23.976562 L 320.328125 23.976562 C 250.183594 23.976562 193.320312 80.839844 193.320312 150.984375 L 193.320312 299.15625 C 193.320312 312.484375 187.046875 325.027344 176.386719 333.023438 L 125.585938 371.128906 C 115.417969 378.75 109.214844 390.542969 108.6875 403.238281 C 108.160156 415.933594 113.363281 428.199219 122.863281 436.640625 L 179.109375 486.621094 C 188.148438 494.65625 193.320312 506.175781 193.320312 518.269531 L 193.320312 659.007812 C 193.320312 729.152344 250.183594 786.011719 320.328125 786.011719 L 341.496094 786.011719 L 341.496094 701.34375 L 320.328125 701.34375 C 296.945312 701.34375 277.992188 682.390625 277.992188 659.007812 L 277.992188 518.269531 C 277.992188 481.984375 262.472656 447.4375 235.351562 423.335938 L 217.839844 407.773438 L 227.1875 400.761719 C 259.167969 376.773438 277.992188 339.132812 277.992188 299.15625 L 277.992188 150.984375 C 277.992188 127.601562 296.945312 108.648438 320.328125 108.648438 Z M 320.328125 108.648438 " fill-opacity="1" fill-rule="evenodd"/></g></svg>