<svg xmlns="http://www.w3.org/2000/svg" xmlns:xlink="http://www.w3.org/1999/xlink" width="1080" zoomAndPan="magnify" viewBox="0 0 810 809.999993" height="1080" preserveAspectRatio="xMidYMid meet" version="1.0"><defs><clipPath id="a5b1a7c7a5"><path d="M 92.863281 124.472656 L 774.207031 124.472656 L 774.207031 720.648438 L 92.863281 720.648438 Z M 92.863281 124.472656 " clip-rule="nonzero"/></clipPath><clipPath id="f10d24e0fd"><path d="M 35.792969 89.351562 L 717.136719 89.351562 L 717.136719 685.527344 L 35.792969 685.527344 Z M 35.792969 89.351562 " clip-rule="nonzero"/></clipPath></defs><path fill="#000000" d="M 107.058594 252.222656 L 107.058594 649.675781 C 107.058594 681 132.511719 706.453125 163.835938 706.453125 L 703.234375 706.453125 C 734.558594 706.453125 760.015625 681 760.015625 649.675781 L 760.015625 252.222656 Z M 189.859375 462.777344 C 186.214844 462.777344 182.574219 461.40625 179.828125 458.613281 C 174.292969 453.078125 174.292969 444.089844 179.828125 438.554688 L 224.210938 394.171875 L 179.828125 349.789062 C 174.292969 344.253906 174.292969 335.261719 179.828125 329.726562 C 185.363281 324.191406 194.355469 324.191406 199.890625 329.726562 L 254.304688 384.140625 C 259.839844 389.675781 259.839844 398.667969 254.304688 404.203125 L 199.890625 458.613281 C 197.097656 461.40625 193.503906 462.777344 189.859375 462.777344 Z M 343.636719 493.535156 L 244.273438 493.535156 C 236.417969 493.535156 230.078125 487.195312 230.078125 479.339844 C 230.078125 471.484375 236.417969 465.144531 244.273438 465.144531 L 343.636719 465.144531 C 351.492188 465.144531 357.832031 471.484375 357.832031 479.339844 C 357.832031 487.195312 351.492188 493.535156 343.636719 493.535156 Z M 343.636719 493.535156 " fill-opacity="1" fill-rule="nonzero"/><path fill="#ffffff" d="M 357.832031 479.339844 C 357.832031 487.195312 351.492188 493.535156 343.636719 493.535156 L 244.273438 493.535156 C 236.417969 493.535156 230.078125 487.195312 230.078125 479.339844 C 230.078125 471.484375 236.417969 465.144531 244.273438 465.144531 L 343.636719 465.144531 C 351.492188 465.144531 357.832031 471.484375 357.832031 479.339844 Z M 254.304688 384.140625 L 199.890625 329.726562 C 194.355469 324.191406 185.363281 324.191406 179.828125 329.726562 C 174.292969 335.261719 174.292969 344.253906 179.828125 349.789062 L 224.210938 394.171875 L 179.828125 438.554688 C 174.292969 444.089844 174.292969 453.078125 179.828125 458.613281 C 182.621094 461.40625 186.214844 462.777344 189.859375 462.777344 C 193.503906 462.777344 197.144531 461.40625 199.890625 458.613281 L 254.304688 404.203125 C 259.839844 398.664062 259.839844 389.675781 254.304688 384.140625 Z M 254.304688 384.140625 " fill-opacity="1" fill-rule="nonzero"/><path fill="#000000" d="M 758.878906 183.996094 C 757.742188 178.457031 755.804688 173.207031 753.152344 168.378906 C 744.398438 152.292969 728.125 140.890625 709.054688 138.949219 C 707.164062 138.761719 705.222656 138.667969 703.234375 138.667969 L 163.835938 138.667969 C 161.894531 138.667969 159.957031 138.761719 158.015625 138.949219 C 138.949219 140.890625 122.625 152.292969 113.917969 168.378906 C 111.316406 173.207031 109.328125 178.457031 108.191406 183.996094 C 107.4375 187.683594 107.058594 191.519531 107.058594 195.445312 L 107.058594 252.222656 L 760.015625 252.222656 L 760.015625 195.445312 C 760.015625 191.519531 759.636719 187.683594 758.878906 183.996094 Z M 758.878906 183.996094 " fill-opacity="1" fill-rule="nonzero"/><g clip-path="url(#a5b1a7c7a5)"><path fill="#000000" d="M 359.203125 138.667969 C 359.203125 130.8125 365.542969 124.472656 373.398438 124.472656 L 375.761719 124.472656 C 383.617188 124.472656 389.957031 130.8125 389.957031 138.667969 C 389.957031 146.519531 383.617188 152.859375 375.761719 152.859375 L 373.398438 152.859375 C 365.542969 152.859375 359.203125 146.519531 359.203125 138.667969 Z M 774.207031 195.445312 L 774.207031 649.675781 C 774.207031 688.804688 742.367188 720.648438 703.234375 720.648438 L 163.835938 720.648438 C 124.707031 720.648438 92.863281 688.804688 92.863281 649.675781 L 92.863281 195.445312 C 92.863281 156.316406 124.707031 124.472656 163.835938 124.472656 L 316.617188 124.472656 C 324.472656 124.472656 330.8125 130.8125 330.8125 138.667969 C 330.8125 146.519531 324.472656 152.859375 316.617188 152.859375 L 163.835938 152.859375 C 140.367188 152.859375 121.253906 171.976562 121.253906 195.445312 L 121.253906 238.027344 L 745.820312 238.027344 L 745.820312 195.445312 C 745.820312 171.976562 726.703125 152.859375 703.234375 152.859375 L 432.542969 152.859375 C 424.6875 152.859375 418.347656 146.519531 418.347656 138.667969 C 418.347656 130.8125 424.6875 124.472656 432.542969 124.472656 L 703.234375 124.472656 C 742.367188 124.472656 774.207031 156.316406 774.207031 195.445312 Z M 745.820312 649.675781 L 745.820312 266.417969 L 121.253906 266.417969 L 121.253906 649.675781 C 121.253906 673.144531 140.367188 692.261719 163.835938 692.261719 L 703.234375 692.261719 C 726.703125 692.261719 745.820312 673.144531 745.820312 649.675781 Z M 745.820312 649.675781 " fill-opacity="1" fill-rule="nonzero"/></g><path fill="#5c656d" d="M 49.984375 217.101562 L 49.984375 614.554688 C 49.984375 645.878906 75.441406 671.332031 106.765625 671.332031 L 646.164062 671.332031 C 677.488281 671.332031 702.941406 645.878906 702.941406 614.554688 L 702.941406 217.101562 Z M 132.789062 427.65625 C 129.144531 427.65625 125.5 426.285156 122.757812 423.492188 C 117.222656 417.957031 117.222656 408.96875 122.757812 403.433594 L 167.140625 359.050781 L 122.757812 314.667969 C 117.222656 309.132812 117.222656 300.140625 122.757812 294.605469 C 128.292969 289.070312 137.285156 289.070312 142.820312 294.605469 L 197.230469 349.019531 C 202.769531 354.554688 202.769531 363.546875 197.230469 369.082031 L 142.820312 423.496094 C 140.027344 426.285156 136.429688 427.65625 132.789062 427.65625 Z M 286.5625 458.414062 L 187.203125 458.414062 C 179.347656 458.414062 173.007812 452.074219 173.007812 444.21875 C 173.007812 436.363281 179.347656 430.023438 187.203125 430.023438 L 286.5625 430.023438 C 294.417969 430.023438 300.757812 436.363281 300.757812 444.21875 C 300.757812 452.074219 294.417969 458.414062 286.5625 458.414062 Z M 286.5625 458.414062 " fill-opacity="1" fill-rule="nonzero"/><path fill="#ffffff" d="M 300.757812 444.21875 C 300.757812 452.074219 294.417969 458.414062 286.5625 458.414062 L 187.203125 458.414062 C 179.347656 458.414062 173.007812 452.074219 173.007812 444.21875 C 173.007812 436.363281 179.347656 430.023438 187.203125 430.023438 L 286.5625 430.023438 C 294.417969 430.023438 300.757812 436.363281 300.757812 444.21875 Z M 197.230469 349.019531 L 142.820312 294.605469 C 137.285156 289.070312 128.292969 289.070312 122.757812 294.605469 C 117.222656 300.140625 117.222656 309.132812 122.757812 314.667969 L 167.140625 359.050781 L 122.757812 403.433594 C 117.222656 408.96875 117.222656 417.957031 122.757812 423.492188 C 125.550781 426.285156 129.144531 427.65625 132.789062 427.65625 C 136.429688 427.65625 140.074219 426.285156 142.820312 423.492188 L 197.230469 369.082031 C 202.769531 363.546875 202.769531 354.554688 197.230469 349.019531 Z M 197.230469 349.019531 " fill-opacity="1" fill-rule="nonzero"/><path fill="#d0d7db" d="M 701.808594 148.875 C 700.671875 143.335938 698.730469 138.085938 696.082031 133.257812 C 687.328125 117.171875 671.050781 105.769531 651.984375 103.828125 C 650.089844 103.640625 648.152344 103.546875 646.164062 103.546875 L 106.765625 103.546875 C 104.824219 103.546875 102.882812 103.640625 100.945312 103.828125 C 81.875 105.769531 65.550781 117.171875 56.847656 133.257812 C 54.246094 138.085938 52.257812 143.335938 51.121094 148.875 C 50.363281 152.5625 49.984375 156.398438 49.984375 160.324219 L 49.984375 217.101562 L 702.941406 217.101562 L 702.941406 160.324219 C 702.941406 156.398438 702.5625 152.5625 701.808594 148.875 Z M 701.808594 148.875 " fill-opacity="1" fill-rule="nonzero"/><g clip-path="url(#f10d24e0fd)"><path fill="#000000" d="M 302.132812 103.546875 C 302.132812 95.691406 308.472656 89.351562 316.324219 89.351562 L 318.691406 89.351562 C 326.546875 89.351562 332.886719 95.691406 332.886719 103.546875 C 332.886719 111.398438 326.546875 117.738281 318.691406 117.738281 L 316.324219 117.738281 C 308.472656 117.738281 302.132812 111.398438 302.132812 103.546875 Z M 717.136719 160.324219 L 717.136719 614.554688 C 717.136719 653.683594 685.292969 685.527344 646.164062 685.527344 L 106.765625 685.527344 C 67.632812 685.527344 35.792969 653.683594 35.792969 614.554688 L 35.792969 160.324219 C 35.792969 121.195312 67.632812 89.351562 106.765625 89.351562 L 259.546875 89.351562 C 267.402344 89.351562 273.742188 95.691406 273.742188 103.546875 C 273.742188 111.398438 267.402344 117.738281 259.546875 117.738281 L 106.765625 117.738281 C 83.296875 117.738281 64.179688 136.855469 64.179688 160.324219 L 64.179688 202.910156 L 688.746094 202.910156 L 688.746094 160.324219 C 688.746094 136.855469 669.632812 117.738281 646.164062 117.738281 L 375.46875 117.738281 C 367.617188 117.738281 361.277344 111.398438 361.277344 103.546875 C 361.277344 95.691406 367.617188 89.351562 375.46875 89.351562 L 646.164062 89.351562 C 685.292969 89.351562 717.136719 121.195312 717.136719 160.324219 Z M 688.746094 614.554688 L 688.746094 231.296875 L 64.179688 231.296875 L 64.179688 614.554688 C 64.179688 638.023438 83.296875 657.140625 106.765625 657.140625 L 646.164062 657.140625 C 669.632812 657.140625 688.746094 638.023438 688.746094 614.554688 Z M 688.746094 614.554688 " fill-opacity="1" fill-rule="nonzero"/></g></svg>