<svg xmlns="http://www.w3.org/2000/svg" xmlns:xlink="http://www.w3.org/1999/xlink" width="1080" zoomAndPan="magnify" viewBox="0 0 810 809.999993" height="1080" preserveAspectRatio="xMidYMid meet" version="1.0"><defs><clipPath id="105ef903cf"><path d="M 11.507812 166 L 792 166 L 792 657.984375 L 11.507812 657.984375 Z M 11.507812 166 " clip-rule="nonzero"/></clipPath><clipPath id="2731567d66"><path d="M 18 152 L 798.257812 152 L 798.257812 644 L 18 644 Z M 18 152 " clip-rule="nonzero"/></clipPath></defs><path fill="#000000" d="M 401.21875 170.703125 C 188.171875 170.703125 15.527344 270.339844 15.527344 393.117188 C 15.53125 402.503906 16.53125 411.78125 18.53125 420.953125 C 20.867188 431.234375 24.230469 441.167969 28.617188 450.753906 C 33 460.34375 38.316406 469.382812 44.566406 477.875 C 73.8125 518.804688 123.695312 553.628906 186.726562 577.976562 C 194.890625 581.191406 203.359375 584.066406 211.957031 586.863281 C 207.277344 591.929688 202.296875 596.679688 197.011719 601.109375 C 191.726562 605.542969 186.179688 609.617188 180.371094 613.339844 C 174.566406 617.058594 168.546875 620.398438 162.3125 623.347656 C 156.078125 626.300781 149.683594 628.84375 143.125 630.976562 L 119.4375 623.890625 L 112.191406 638.355469 C 123.816406 643.484375 135.847656 647.351562 148.285156 649.949219 C 160.722656 652.550781 173.296875 653.828125 186 653.78125 C 233.089844 653.78125 280.238281 636.296875 309.648438 608.464844 C 340 613.191406 370.535156 615.542969 401.25 615.519531 C 614.3125 615.519531 787.039062 515.878906 787.039062 393.085938 C 787.039062 270.292969 614.28125 170.703125 401.21875 170.703125 Z M 401.21875 170.703125 " fill-opacity="1" fill-rule="nonzero"/><g clip-path="url(#105ef903cf)"><path stroke-linecap="round" transform="matrix(1.60705, 0, 0, 1.60705, 10.865543, 151.32133)" fill="none" stroke-linejoin="round" d="M 242.900402 12.060477 C 110.330282 12.060477 2.900843 74.060221 2.900843 150.459404 C 2.903274 156.300365 3.525532 162.073266 4.770048 167.780539 C 6.223603 174.178129 8.316432 180.359387 11.046103 186.324313 C 13.773343 192.29167 17.081519 197.916299 20.970631 203.20063 C 39.169247 228.669455 70.209226 250.339104 109.430924 265.489627 C 114.511078 267.490089 119.780825 269.279081 125.130785 271.019459 C 122.218812 274.172071 119.119676 277.127796 115.830945 279.884205 C 112.542214 282.643044 109.090627 285.178259 105.476183 287.494711 C 101.86417 289.808733 98.118469 291.886978 94.239079 293.722153 C 90.359689 295.559758 86.380641 297.142141 82.299504 298.469301 L 67.559768 294.060019 L 63.050828 303.060884 C 70.284577 306.252387 77.771119 308.658775 85.510452 310.275188 C 93.249786 311.894031 101.074194 312.688868 108.978815 312.6597 C 138.280847 312.6597 167.619339 301.779908 185.920043 284.461204 C 204.806546 287.402345 223.80729 288.865624 242.919847 288.851039 C 375.49969 288.851039 482.980174 226.848864 482.980174 150.439959 C 482.980174 74.031053 375.480245 12.060477 242.900402 12.060477 Z M 242.900402 12.060477 " stroke="#000000" stroke-width="5" stroke-opacity="1" stroke-miterlimit="4"/></g><path fill="#efbebd" d="M 408.464844 156.140625 C 195.417969 156.140625 22.773438 255.78125 22.773438 378.558594 C 22.78125 387.949219 23.777344 397.230469 25.761719 406.410156 C 28.109375 416.683594 31.476562 426.617188 35.863281 436.199219 C 40.25 445.785156 45.566406 454.824219 51.8125 463.3125 C 81.0625 504.261719 130.945312 539.070312 193.957031 563.417969 C 202.136719 566.632812 210.605469 569.507812 219.203125 572.304688 C 195.097656 598.996094 159.824219 617.878906 119.566406 623.828125 C 131.191406 628.957031 143.222656 632.824219 155.660156 635.425781 C 168.097656 638.023438 180.671875 639.300781 193.378906 639.253906 C 240.464844 639.253906 282.777344 621.769531 312.203125 593.933594 C 344.171875 598.660156 376.3125 601.011719 408.625 600.988281 C 621.6875 600.988281 794.414062 501.351562 794.414062 378.558594 C 794.414062 255.761719 621.542969 156.140625 408.464844 156.140625 Z M 408.464844 156.140625 " fill-opacity="1" fill-rule="nonzero"/><g clip-path="url(#2731567d66)"><path stroke-linecap="round" transform="matrix(1.60705, 0, 0, 1.60705, 10.865543, 151.32133)" fill="none" stroke-linejoin="round" d="M 247.409342 2.998845 C 114.839221 2.998845 7.409783 65.00102 7.409783 141.400203 C 7.414644 147.243594 8.034471 153.018926 9.269264 158.73106 C 10.730112 165.123789 12.825372 171.305047 15.555042 177.267542 C 18.284713 183.232468 21.592889 188.857097 25.479571 194.138998 C 43.680617 219.619977 74.720596 241.279902 113.930141 256.430426 C 119.020017 258.430888 124.289765 260.21988 129.639725 261.960258 C 114.639904 278.569198 92.690726 290.319179 67.639981 294.021128 C 74.87373 297.212631 82.360271 299.619019 90.099605 301.237862 C 97.838939 302.854275 105.663347 303.649112 113.570399 303.619944 C 142.869999 303.619944 169.199291 292.740152 187.509718 275.419017 C 207.402528 278.360159 227.402289 279.823437 247.509 279.808853 C 380.088843 279.808853 487.569326 217.809109 487.569326 141.400203 C 487.569326 64.988866 379.998907 2.998845 247.409342 2.998845 Z M 247.409342 2.998845 " stroke="#000000" stroke-width="5" stroke-opacity="1" stroke-miterlimit="4"/></g><path stroke-linecap="round" transform="matrix(1.60705, 0, 0, 1.60705, 10.865543, 151.32133)" fill-opacity="1" fill="#000000" fill-rule="nonzero" stroke-linejoin="round" d="M 257.000865 161.519068 L 261.480636 88.790234 L 229.769786 83.340616 L 225.839352 88.790234 L 225.839352 197.109308 L 271.021115 197.109308 L 274.958842 191.659689 L 271.021115 161.519068 Z M 257.000865 161.519068 " stroke="#000000" stroke-width="5" stroke-opacity="1" stroke-miterlimit="4"/><path stroke-linecap="round" transform="matrix(1.60705, 0, 0, 1.60705, 10.865543, 151.32133)" fill-opacity="1" fill="#000000" fill-rule="nonzero" stroke-linejoin="round" d="M 306.110632 161.519068 L 310.580681 88.790234 L 278.879553 83.340616 L 274.939396 88.790234 L 274.939396 197.109308 L 320.12116 197.109308 L 324.058886 191.659689 L 320.12116 161.519068 Z M 306.110632 161.519068 " stroke="#000000" stroke-width="5" stroke-opacity="1" stroke-miterlimit="4"/><path stroke-linecap="round" transform="matrix(1.60705, 0, 0, 1.60705, 10.865543, 151.32133)" fill-opacity="1" fill="#000000" fill-rule="nonzero" stroke-linejoin="round" d="M 365.159513 199.440345 C 391.99925 199.440345 408.109898 184.109949 408.109898 158.439377 C 408.109898 132.768804 391.99925 117.44084 365.159513 117.44084 C 338.319775 117.44084 322.510533 132.759081 322.510533 158.439377 C 322.510533 184.119672 338.470478 199.440345 365.159513 199.440345 Z M 365.159513 164.440763 C 355.609311 164.440763 350.551034 162.109727 350.551034 158.439377 C 350.551034 154.769027 355.609311 152.250827 365.159513 152.250827 C 375.01112 152.250827 380.069397 154.730136 380.069397 158.439377 C 380.069397 162.151048 374.998967 164.460209 365.159513 164.460209 Z M 365.159513 164.440763 " stroke="#000000" stroke-width="5" stroke-opacity="1" stroke-miterlimit="4"/><path stroke-linecap="round" transform="matrix(1.60705, 0, 0, 1.60705, 10.865543, 151.32133)" fill-opacity="1" fill="#000000" fill-rule="nonzero" stroke-linejoin="round" d="M 447.329166 158.108802 L 451.269323 152.659183 L 452.399597 88.790234 L 420.399493 83.340616 L 416.469059 88.790234 L 422.139871 158.108802 Z M 434.329808 199.10977 C 444.329688 199.10977 451.040838 192.770517 451.18911 183.329696 C 451.18911 174.049302 444.329688 167.5399 434.329808 167.5399 C 424.329928 167.5399 417.630931 174.049302 417.630931 183.329696 C 417.650377 192.78024 424.359096 199.119493 434.349253 199.119493 Z M 434.329808 199.10977 " stroke="#000000" stroke-width="5" stroke-opacity="1" stroke-miterlimit="4"/><path stroke-linecap="round" transform="matrix(1.60705, 0, 0, 1.60705, 10.865543, 151.32133)" fill-opacity="1" fill="#000000" fill-rule="nonzero" stroke-linejoin="round" d="M 136.000854 177.559226 L 136.000854 149.29024 C 136.000854 129.489796 129.729661 117.409241 112.430402 117.409241 C 97.219111 117.409241 89.319352 131.798957 87.819613 149.139537 L 85.841027 149.139537 L 91.361136 88.790234 L 63.760591 88.790234 L 58.908923 83.340616 L 55.000365 88.790234 L 55.000365 197.109308 L 88.099143 197.109308 L 92.000409 191.659689 L 87.000469 183.90091 L 85.999022 170.189358 C 85.260091 162.129172 88.539099 154.090863 95.998902 154.090863 C 103.461137 154.090863 104.999767 161.361072 103.901093 169.251109 L 100.899184 197.109308 L 136.000854 197.109308 L 139.928858 191.659689 Z M 136.000854 177.559226 " stroke="#000000" stroke-width="5" stroke-opacity="1" stroke-miterlimit="4"/><path stroke-linecap="round" transform="matrix(1.60705, 0, 0, 1.60705, 10.865543, 151.32133)" fill-opacity="1" fill="#000000" fill-rule="nonzero" stroke-linejoin="round" d="M 215.739813 163.689678 C 208.73941 167.240924 201.420587 169.100406 190.679345 169.100406 C 179.940533 169.100406 170.400054 166.939518 170.101078 162.450024 L 220.10048 162.450024 L 223.999315 157.000405 L 220.749476 153.680075 C 219.799074 131.551026 205.749655 117.409241 181.279846 117.409241 C 156.810037 117.409241 140.419858 132.729913 140.419858 158.108802 C 140.419858 183.339419 156.229101 199.440345 185.159236 199.440345 C 197.390494 199.440345 209.619322 196.640184 216.629447 193.438958 L 220.569604 187.989339 L 216.28915 182.000106 Z M 181.430549 147.119629 C 187.699312 147.119629 192.320064 150.529894 192.769743 156.570172 L 169.998989 156.570172 C 171.299411 149.759364 176.070866 147.119629 181.430549 147.119629 Z M 181.430549 147.119629 " stroke="#000000" stroke-width="5" stroke-opacity="1" stroke-miterlimit="4"/><path stroke-linecap="round" transform="matrix(1.60705, 0, 0, 1.60705, 10.865543, 151.32133)" fill-opacity="1" fill="#8abeff" fill-rule="nonzero" stroke-linejoin="round" d="M 92.000409 191.659689 L 89.910011 164.739739 C 89.171079 156.689276 92.440365 148.638813 99.909891 148.638813 C 107.379418 148.638813 108.849988 155.909023 107.809651 163.79906 L 104.810173 191.659689 L 139.809754 191.659689 L 139.809754 143.840621 C 139.809754 124.040177 133.550714 111.959622 116.249025 111.959622 C 101.040164 111.959622 93.140405 126.349338 91.640666 143.689918 L 89.781184 143.689918 L 95.298862 83.340616 L 58.908923 83.340616 L 58.908923 191.659689 Z M 92.000409 191.659689 " stroke="#000000" stroke-width="3" stroke-opacity="1" stroke-miterlimit="4"/><path stroke-linecap="round" transform="matrix(1.60705, 0, 0, 1.60705, 10.865543, 151.32133)" fill-opacity="1" fill="#8abeff" fill-rule="nonzero" stroke-linejoin="round" d="M 189.099393 194.000449 C 201.330651 194.000449 213.559479 191.21001 220.569604 187.999062 L 219.670247 158.291104 C 212.669845 161.839919 205.360744 163.709124 194.670546 163.709124 C 183.781031 163.709124 174.388825 161.540944 174.089849 157.049019 L 224.089251 157.049019 C 224.633727 154.968344 224.884088 152.851208 224.840336 150.700043 C 224.840336 127.180636 210.669383 112.010666 185.309939 112.010666 C 160.708872 112.010666 144.449951 127.328908 144.449951 152.710228 C 144.360016 177.8898 160.169258 194.000449 189.099393 194.000449 Z M 173.890532 151.130276 C 175.229845 144.319468 180.011023 141.689456 185.370706 141.689456 C 191.639469 141.689456 196.260221 145.089998 196.7099 151.130276 Z M 173.890532 151.130276 " stroke="#000000" stroke-width="3" stroke-opacity="1" stroke-miterlimit="4"/><path stroke-linecap="round" transform="matrix(1.60705, 0, 0, 1.60705, 10.865543, 151.32133)" fill-opacity="1" fill="#8abeff" fill-rule="nonzero" stroke-linejoin="round" d="M 260.999359 156.069449 L 265.469407 83.340616 L 229.811108 83.340616 L 229.811108 191.659689 L 275.000164 191.659689 L 275.000164 156.069449 Z M 260.999359 156.069449 " stroke="#000000" stroke-width="3" stroke-opacity="1" stroke-miterlimit="4"/><path stroke-linecap="round" transform="matrix(1.60705, 0, 0, 1.60705, 10.865543, 151.32133)" fill-opacity="1" fill="#8abeff" fill-rule="nonzero" stroke-linejoin="round" d="M 309.999745 156.069449 L 314.479516 83.340616 L 278.879553 83.340616 L 278.879553 191.659689 L 324.058886 191.659689 L 324.058886 156.069449 Z M 309.999745 156.069449 " stroke="#000000" stroke-width="3" stroke-opacity="1" stroke-miterlimit="4"/><path stroke-linecap="round" transform="matrix(1.60705, 0, 0, 1.60705, 10.865543, 151.32133)" fill-opacity="1" fill="#8abeff" fill-rule="nonzero" stroke-linejoin="round" d="M 369.09967 194.000449 C 395.939407 194.000449 412.050055 178.679776 412.050055 152.999481 C 412.050055 127.319185 395.939407 112.000944 369.09967 112.000944 C 342.259932 112.000944 326.440968 127.319185 326.440968 152.999481 C 326.440968 178.679776 342.400913 194.000449 369.09967 194.000449 Z M 369.09967 159.000867 C 359.549468 159.000867 354.491191 156.679553 354.491191 152.999481 C 354.491191 149.319408 359.549468 146.810931 369.09967 146.810931 C 378.939124 146.810931 384.009554 149.29024 384.009554 152.999481 C 384.009554 156.711152 378.939124 159.000867 369.09967 159.000867 Z M 369.09967 159.000867 " stroke="#000000" stroke-width="3" stroke-opacity="1" stroke-miterlimit="4"/><path stroke-linecap="round" transform="matrix(1.60705, 0, 0, 1.60705, 10.865543, 151.32133)" fill-opacity="1" fill="#8abeff" fill-rule="nonzero" stroke-linejoin="round" d="M 451.269323 152.659183 L 456.339754 83.340616 L 420.389771 83.340616 L 426.070305 152.659183 Z M 438.269965 193.660151 C 448.269845 193.660151 454.980995 187.311175 455.129267 177.870355 C 455.129267 168.58996 448.269845 162.080558 438.269965 162.080558 C 428.270085 162.080558 421.571088 168.58996 421.571088 177.870355 C 421.590534 187.330621 428.299253 193.679597 438.28941 193.679597 Z M 438.269965 193.660151 " stroke="#000000" stroke-width="3" stroke-opacity="1" stroke-miterlimit="4"/></svg>